<svg xmlns="http://www.w3.org/2000/svg" width="153" height="38" fill="none"><path fill="#1AD3B2" d="M13.8 1.1h6.9V8h-6.9zM20.7 8h6.9v6.9h-6.9zM27.6 14.9h6.9v6.9h-6.9zM20.7 21.8h6.9v6.9h-6.9z"/><path fill="#13126C" d="M13.8 28.7h6.9v6.9h-6.9zM6.9 21.8h6.9v6.9H6.9zM0 14.9h6.9v6.9H0zM6.9 8h6.9v6.9H6.9z"/><path fill="#13126C" fill-rule="evenodd" d="M131.8 15.3v-.8c-.8 0-1-.1-1-.7V0h-.7l-4 .9v.6l1 .5v11.8c0 .6-.3.7-1 .7v.8h5.7Zm-52 .2c1.8 0 3.6-.5 4.7-1.3l.4-3.9h-1c-.8 3-2 4.2-3.7 4.2-2.4 0-3.6-2.7-3.6-6.2 0-3.3 1-6 3.4-6 1.8 0 2.9 1.3 3.4 3.7h1l-.1-3.5a7.8 7.8 0 0 0-4.4-1.1c-4 0-7.4 2.8-7.4 7.4 0 4.1 2.8 6.7 7.2 6.7Zm-32-.2v-.8c-1 0-1.5-.3-1.5-1l.1-.7.7-1.7h5l.7 1.8.1.7c0 .6-.5.8-1.5.9v.8h6.9v-.8c-.6-.1-1-.2-1.2-.7L52.3 1.5h-4.1l.7 1.7-4.1 10.6c-.2.5-.6.6-1.1.7v.8h4.2Zm3.8-5.3h-4.1l2-5.4 2.1 5.4Zm20 1.6c0 2.5-2 3.7-5.5 3.7h-7.3v-.8c1.3-.2 1.4-.3 1.4-1.3V3.7c0-1-.1-1.2-1.4-1.3v-.8h7c3.1 0 4.9 1.1 4.9 3.4 0 2-1.8 3-3.7 3.2 2.6 0 4.6 1.2 4.6 3.4Zm-7-3.9H64V2.5h.5c1.6 0 2.6.8 2.6 2.5 0 1.8-1 2.7-2.6 2.7Zm.8 6.7h.2c1.3 0 2.3-1 2.3-2.9 0-1.8-1-2.7-3-2.7H64V13c0 1.1.4 1.4 1.4 1.4Zm30.3 0v.9H89v-.8c1.3-.2 1.4-.3 1.4-1.3V3.7c0-1 0-1.2-1.4-1.3v-.8h6.7v.8c-1.3.1-1.4.3-1.4 1.3v4h5v-4c0-1-.2-1.2-1.5-1.3v-.8h6.7v.8c-1.3.1-1.4.3-1.4 1.3v9.6c0 .9.1 1 1.4 1.2v.8h-6.7v-.8c1.3-.2 1.4-.3 1.4-1.3V8.9h-5v4.4c0 .9.3 1 1.5 1.2Zm14.5 1c2.5 0 4-1.3 4.5-3.5l-.4-.2c-.7 1-1.6 1.4-2.9 1.4-1.8 0-3-1.4-3-3.8h6.2v-.5c0-2.4-1.4-4.2-4.3-4.2-2.8 0-5.2 2.2-5.2 5.7 0 3.3 2.2 5.2 5.1 5.2Zm-1.8-7h3.1c0-1.9-.3-3-1.4-3-1 0-1.6 1.2-1.7 3Zm14.9 7c1 0 1.9-.3 2.5-1V14l-.8.1c-.4 0-.5-.4-.5-.9V8c0-2.6-1.6-3.4-4.4-3.4-2.3 0-4.2.8-4.2 2.6 0 .7.4 1.1 1 1.3l2.2-.3-.2-1.3c0-1 .3-1.6 1-1.6.8 0 1 .6 1 1.5v2l-3 1.1c-1.4.5-2.6 1.2-2.6 3 0 1.6 1.1 2.5 2.8 2.5 1.4 0 2.4-.7 3-1.5.2 1 1 1.6 2.2 1.6Zm-4.5-3.6c0 1 .3 1.8 1.3 1.8l.9-.3V9.7l-1.1.4c-.7.2-1.1.6-1.1 1.7Zm20.8 1.8c-.7 1.2-1.8 1.9-3.4 1.9-1.8 0-3-1-3-3.2V5.8h-1.1v-.6c1.5-.6 3-1.7 4-3h.7v2.6h2.3v1h-2.3v6.5c0 1 .4 1.3 1.1 1.3.6 0 1-.1 1.5-.5l.2.5Zm6 1.7v-.8c-.8 0-1-.1-1-.7V7c.5-.2 1-.4 1.7-.4 1 0 1.3.5 1.3 1.4v5.7c0 .6-.3.7-1 .7v.8h5.7v-.8c-.8 0-1.1-.1-1.1-.7v-6c0-2.2-1.1-3.2-3-3.2-1.8 0-2.9 1-3.6 2V0h-.6l-4.1.9v.6l1 .5v11.8c0 .6-.2.7-1 .7v.8h5.7ZM54.3 29.5c0 3-2.4 4.4-5.4 4.4-2 0-3.6-.6-4.5-1.3l-.3-3.4h1c.6 2.2 1.9 3.7 3.8 3.7 1.4 0 2.3-.6 2.3-1.8 0-1.3-.8-1.9-3-2.5-2.6-.8-4-2-4-4.4 0-2.7 2-4.4 5-4.4 1.8 0 3.2.4 4.2 1.1v3h-.9c-.4-2-1.5-3.2-3.3-3.2-1.2 0-2 .7-2 1.8 0 1.3.7 1.8 2.8 2.4 2.6.8 4.3 1.8 4.3 4.6Zm3.4 8.5c1.3 0 2-.9 2.8-2.6l4.4-10.7c.2-.4.4-.6 1-.8v-.7h-3.5v.7c1 .2 1.3.3 1.3.7l-.2.5-2 5-2-5-.1-.5c0-.4.2-.5 1.3-.7v-.7h-6.3v.7c.7.2.8.4 1 .8l4.5 9.5-.3.7c-.4.8-1 1-2 1h-1.4l-.2-.1v1.4c.3.5.9.8 1.7.8Zm16.5-7.7c0 2.3-1.7 3.6-4.3 3.6-1.7 0-2.9-.4-3.7-1l-.2-2.7h1c.3 1.6 1.3 2.9 2.9 2.9.9 0 1.6-.5 1.6-1.4 0-1-.7-1.3-2-1.7-2.3-.7-3.5-1.6-3.5-3.6 0-2.2 1.7-3.4 4-3.4 1.4 0 2.6.3 3.4.9v2.3h-.8c-.2-1.3-1.1-2.4-2.5-2.4-.8 0-1.4.4-1.4 1.2 0 .8.6 1.1 1.9 1.6 2.3.8 3.6 1.6 3.6 3.7Zm4.7 3.6c1.5 0 2.6-.7 3.4-2l-.3-.4c-.5.3-1 .5-1.4.5-.8 0-1.1-.4-1.1-1.3v-6.5h2.2v-1h-2.2v-2.7h-.8a9.2 9.2 0 0 1-4 3v.7h1.1v6.5c0 2.3 1.3 3.2 3 3.2ZM92 30.3c-.5 2.2-2 3.6-4.4 3.6-3 0-5.1-2-5.1-5.2 0-3.5 2.4-5.7 5.2-5.7 2.8 0 4.3 1.8 4.3 4.2v.5h-6.3c0 2.3 1.3 3.8 3 3.8 1.3 0 2.2-.5 3-1.4l.3.2ZM89 26.8h-3.1c0-1.8.6-3 1.7-3 1 0 1.4 1.1 1.4 3Zm9.4 6.1v.8h-5.6v-.8c.7 0 1-.1 1-.7v-6.9l-1-.7v-.5l4-1.1h.7v2c.7-1.1 1.7-2 3.5-2 1.5 0 2.4.6 2.7 2 .7-1 1.9-2 3.6-2 1.8 0 2.8 1 2.8 3v6.2c0 .6.3.7 1 .7v.8h-5.6v-.8c.8 0 1-.1 1-.7v-5.8c0-.8-.3-1.3-1.2-1.3-.6 0-1 .2-1.5.4v6.7c0 .6.2.7 1 .7v.8H99v-.8c.8 0 1-.1 1-.7v-5.8c0-.8-.3-1.3-1.2-1.3-.6 0-1 .2-1.6.4v6.7c0 .6.3.7 1 .7Z" clip-rule="evenodd"/></svg>